# xmcd
#
# Track frame offsets:
#	183
#	15668
#	30408
#	60258
#	73083
#	92750
#	117933
#	131548
#	147258
#	167533
#	185733
#	200015
#	224153
#
# Disc length: 3131 seconds
#
# Revision: 1
# Processed by: cddbd v1.5.1PL0 Copyright (c) Steve Scherf et al.
# Submitted via: audiograbber 1.83.01
#
DISCID=be0c390d
DTITLE=Sarasota Slim - Hungry Man
DYEAR=1994
DGENRE=Hammond and Bluegrass
TTITLE0=Lonely room
TTITLE1=Lucky shuffle
TTITLE2=As the years go passing by
TTITLE3=I'm gonna bring my best friend's neck
TTITLE4=Close to the fire
TTITLE5=Too many roads
TTITLE6=Hungry man
TTITLE7=Spanish sausage
TTITLE8=Wrapped up in love again
TTITLE9=Rhumboogie
TTITLE10=Shim Sham Shimmy
TTITLE11=The Devil came down from Georgia
TTITLE12=Nitro's Express
EXTD=
EXTT0=
EXTT1=
EXTT2=
EXTT3=
EXTT4=
EXTT5=
EXTT6=
EXTT7=
EXTT8=
EXTT9=
EXTT10=
EXTT11=
EXTT12=
PLAYORDER=
